<svg xmlns="http://www.w3.org/2000/svg" width="400" height="400" viewBox="0 0 400 400">
  <rect width="400" height="400" fill="#F9FAFB"/>
  <path d="M200 62 C148 62 106 104 106 156 C106 195 128 228 162 248 C167 252 170 258 170 265 L170 288 L230 288 L230 265 C230 258 233 252 238 248 C272 228 294 195 294 156 C294 104 252 62 200 62Z" fill="#FEF3C7" stroke="#FCD34D" stroke-width="2"/>
  <ellipse cx="155" cy="130" rx="22" ry="38" fill="white" opacity="0.28"/>
  <line x1="200" y1="288" x2="200" y2="220" stroke="#B45309" stroke-width="3"/>
  <line x1="186" y1="220" x2="214" y2="220" stroke="#B45309" stroke-width="2"/>
  <line x1="186" y1="210" x2="214" y2="210" stroke="#B45309" stroke-width="2"/>
  <path d="M192 210 C190 185 188 165 190 145" fill="none" stroke="#F59E0B" stroke-width="1.8" stroke-linecap="round"/>
  <path d="M196 210 C195 183 194 163 197 143" fill="none" stroke="#FBBF24" stroke-width="1.8" stroke-linecap="round"/>
  <path d="M204 210 C205 183 206 163 203 143" fill="none" stroke="#FBBF24" stroke-width="1.8" stroke-linecap="round"/>
  <path d="M208 210 C210 185 212 165 210 145" fill="none" stroke="#F59E0B" stroke-width="1.8" stroke-linecap="round"/>
  <path d="M190 145 C194 138 206 138 210 145" fill="none" stroke="#F59E0B" stroke-width="1.8" stroke-linecap="round"/>
  <rect x="170" y="288" width="60" height="10" rx="2" fill="#D1D5DB"/>
  <rect x="168" y="298" width="64" height="8" rx="1" fill="#E5E7EB"/>
  <line x1="168" y1="301" x2="232" y2="301" stroke="#9CA3AF" stroke-width="0.8"/>
  <line x1="168" y1="304" x2="232" y2="304" stroke="#9CA3AF" stroke-width="0.8"/>
  <rect x="170" y="306" width="60" height="8" rx="1" fill="#D1D5DB"/>
  <line x1="170" y1="309" x2="230" y2="309" stroke="#9CA3AF" stroke-width="0.8"/>
  <line x1="170" y1="312" x2="230" y2="312" stroke="#9CA3AF" stroke-width="0.8"/>
  <rect x="174" y="314" width="52" height="7" rx="2" fill="#B0B7C3"/>
  <rect x="182" y="321" width="36" height="6" rx="3" fill="#9CA3AF"/>
  <text x="200" y="358" text-anchor="middle" font-family="Arial,sans-serif" font-size="13" fill="#9CA3AF" letter-spacing="0.5">Sem imagem</text>
</svg>
