<svg xmlns="http://www.w3.org/2000/svg" width="400" height="400" viewBox="0 0 400 400">
  <rect width="400" height="400" fill="#F9FAFB"/>
  <circle cx="200" cy="185" r="75" fill="none" stroke="#E5E7EB" stroke-width="3"/>
  <path d="M175 185 C175 165 185 150 200 145 C215 150 225 165 225 185 C225 200 216 212 210 218 L210 235 C210 237 208 238 206 238 L194 238 C192 238 190 237 190 235 L190 218 C184 212 175 200 175 185Z" fill="#E5E7EB"/>
  <rect x="191" y="238" width="18" height="5" rx="2" fill="#D1D5DB"/>
  <rect x="193" y="243" width="14" height="4" rx="2" fill="#D1D5DB"/>
  <rect x="195" y="247" width="10" height="4" rx="2" fill="#D1D5DB"/>
  <text x="200" y="300" text-anchor="middle" font-family="Arial,sans-serif" font-size="13" fill="#9CA3AF">Sem imagem</text>
</svg>
