<?xml version="1.0" encoding="UTF-8"?>
<!DOCTYPE svg PUBLIC "-//W3C//DTD SVG 1.1//EN" "http://www.w3.org/Graphics/SVG/1.1/DTD/svg11.dtd">
<!-- Creator: CorelDRAW 2026 -->
<svg xmlns="http://www.w3.org/2000/svg" xml:space="preserve" width="512px" height="315px" version="1.1" style="shape-rendering:geometricPrecision; text-rendering:geometricPrecision; image-rendering:optimizeQuality; fill-rule:evenodd; clip-rule:evenodd"
viewBox="0 0 512 315.05"
 xmlns:xlink="http://www.w3.org/1999/xlink"
 xmlns:xodm="http://www.corel.com/coreldraw/odm/2003">
 <defs>
  <style type="text/css">
   <![CDATA[
    .fil0 {fill:#00A85A}
    .fil2 {fill:white}
    .fil1 {fill:#201F1F;fill-rule:nonzero}
    .fil3 {fill:white;fill-rule:nonzero}
   ]]>
  </style>
 </defs>
 <g id="Camada_x0020_1">
  <metadata id="CorelCorpID_0Corel-Layer"/>
  <g id="_51361088192">
   <path class="fil0" d="M397.03 0l-33.26 0 -48.45 0 -193.27 0 -33.26 0 -55.26 0c-18.6,0 -33.53,14.93 -33.53,33.26l0 62.33 0 124.14 0 62.07c0,18.33 14.93,33.26 33.53,33.26l55.26 0 33.26 0 193.27 0 48.45 0 33.26 0 0 -33.26 0 -248.54 0 -33.26 0 0z"/>
   <path class="fil0" d="M145.62 0l33.25 0 18.08 0 193.27 0 33 0 55.52 0c18.33,0 33.26,14.93 33.26,33.26l0 62.33 0 124.14 0 62.07c0,18.33 -14.93,33.26 -33.26,33.26l-55.52 0 -33 0 -193.27 0 -18.08 0 -33.25 0 0 -33.26 0 -248.54 0 -33.26 0 0z"/>
   <path class="fil1" d="M167.35 184.11l-36.4 0 -73.07 0c0,0 -0.26,-0.26 -0.26,-0.52 -0.26,-0.26 -0.53,-0.78 -0.53,-1.31 -0.25,-0.52 -0.25,-1.05 -0.25,-1.57 0,-0.79 0,-1.58 0.25,-2.1 0.26,-0.78 0.79,-1.31 1.31,-1.83 0.53,-0.78 1.31,-1.31 2.36,-1.58 1.05,-0.25 2.1,-0.52 3.66,-0.52l73.07 0 29.85 0 283.63 0c2.88,0 4.18,1.57 4.18,4.19l0 1.05c0,1.3 -0.26,2.35 -0.78,3.14 -0.78,0.53 -2.1,1.05 -3.66,1.05l-283.37 0 0 0 0 0 0.01 0z"/>
   <path class="fil2" d="M406.2 143.25l15.19 0 2.62 -17.28 8.91 0 1.83 17.28 16.5 0 -10.74 -64.43 -22 0 -12.31 64.43zm19.11 -27.23l3.66 -30.12 2.88 30.12 -6.54 0z"/>
   <path class="fil2" d="M358.54 78.83l0 64.43 17.02 0 0 -29.07 1.83 0 1.58 0 0.52 0.26 0.52 0.52 0.26 0 0.26 0.78 0.26 0.53 0.25 1.31 0.26 1.3 0 11.79 0.26 3.15 0.26 3.4 0.78 2.88 1.05 3.15 17.28 0 -0.78 -2.1 -0.78 -2.35 -0.53 -2.1 -0.26 -2.36 0 -2.35 -0.25 -2.1 0 -6.03 0 -6.03 -0.26 -1.3 -0.26 -1.31 -0.78 -1.57 -0.52 -1.31 -0.79 -0.78 -1.05 -1.05 -1.05 -0.53 -1.04 -0.52 -1.58 -0.52 -1.83 -0.79 0.78 -0.25 2.1 -0.79 1.83 -1.05 1.31 -1.04 1.05 -1.31 1.05 -1.58 0.52 -1.57 0.26 -1.57 0.26 -1.58 0.25 -3.14 -0.25 -2.88 -0.79 -3.15 -0.52 -1.83 -1.05 -1.58 -1.05 -1.3 -1.57 -1.31 -1.83 -1.31 -1.83 -0.78 -2.36 -0.52 -2.1 -0.26 -4.45 -0.53 -4.46 0 -17.8 0 0 0 0.02 0zm17.01 9.17l2.1 0.26 1.31 0.25 0.78 0.26 0.52 0.53 0.53 1.05 0.25 1.3 0.26 2.63 0 3.93 0 1.57 -0.52 1.57 0 1.05 -0.26 0.53 -0.78 0.78 -0.78 0.26 -0.26 0 -1.05 0.25 -1.05 0 -1.05 0.26 0 -16.5 0 0 0 0.02z"/>
   <path class="fil2" d="M313.22 143.25l21.48 0 2.62 0 2.1 -0.26 2.36 -0.25 2.35 -0.53 2.1 -0.78 1.83 -1.31 1.31 -1.04 1.05 -1.05 1.05 -1.31 0.78 -1.31 0.53 -2.35 0.25 -2.63 0.26 -2.88 0.26 -3.14 0 -2.88 -0.26 -2.89 -0.52 -1.57 -0.53 -1.57 -0.78 -1.31 -0.78 -1.05 -1.31 -1.05 -1.31 -0.78 -1.05 -0.52 -1.05 -0.26 -1.83 -0.53 -2.35 -0.52 2.35 -0.53 1.83 -0.78 1.58 -0.52 1.57 -1.05 1.31 -1.31 0.78 -1.05 0.78 -1.3 0.79 -2.1 0.25 -2.36 0.26 -2.35 0 -2.63 -0.26 -2.35 -0.52 -2.62 -0.26 -1.58 -1.05 -1.31 -0.78 -1.3 -1.31 -1.31 -1.05 -0.78 -1.05 -0.53 -1.3 -0.78 -1.31 -0.52 -1.3 -0.26 -1.31 -0.52 -1.05 0 -1.58 -0.26 -4.18 -0.26 -3.93 -0.26 -17.81 0 0 64.43 0 0 -0.01 -0.04zm17.03 -54.99l2.35 0 1.58 0.25 0.52 0.26 0.78 0.53 0.53 0.52 0 0.53 0 0.78 0.25 0.78 0 8.64 -0.25 1.05 0 1.05 -0.53 0.78 -0.52 0.53 -0.26 0 -0.78 0.52 -1.31 0.26 -2.35 0.26 0 -16.76 0 0 -0.01 0.02zm0 26.19l2.35 0 1.05 0.26 1.05 0.52 0.78 0.52 0.53 0.53 0 0.26 0.25 1.57 0 0.26 0 9.95 -0.25 1.3 0 1.31 -0.26 1.05 -0.78 0.52 -0.53 0.78 -0.78 0.26 -1.31 0 -1.3 0.26 -0.78 0 0 -19.38 0 0 -0.02 0.03z"/>
   <polygon class="fil2" points="290.44,78.83 290.44,143.25 307.99,143.25 307.99,78.83 "/>
   <polygon class="fil2" points="245.13,78.83 245.13,143.25 262.41,143.25 262.41,113.14 267.92,113.14 267.92,143.25 285.2,143.25 285.2,78.83 267.92,78.83 267.92,102.13 262.41,102.13 262.41,78.83 "/>
   <polygon class="fil2" points="239.9,102.13 239.9,94.54 239.9,91.66 239.63,88.78 239.11,86.95 238.59,85.12 237.54,83.55 236.22,82.24 234.92,81.19 233.34,80.14 232.04,79.36 230.2,79.09 228.11,78.31 225.49,78.04 223.4,77.79 221.04,77.52 218.68,77.52 216.33,77.79 213.97,78.04 211.61,78.31 209.25,79.09 207.16,80.14 205.06,81.19 203.23,82.76 202.71,83.28 201.92,84.6 201.13,85.9 200.35,87.48 200.09,89.05 199.56,92.97 199.56,96.9 199.56,125.45 199.56,128.59 199.56,131.73 199.83,133.3 200.35,134.88 200.88,136.44 201.66,138.02 202.96,139.59 204.28,140.64 206.11,141.69 207.94,142.73 208.99,142.99 211.35,143.52 213.7,144.04 216.33,144.3 218.68,144.3 221.3,144.3 223.65,144.3 226.02,143.78 228.63,143.25 230.73,142.47 233.09,141.42 234.92,140.11 235.97,139.06 236.75,138.54 238.06,136.71 238.85,135.14 239.11,133.56 239.63,132 239.9,130.42 239.9,117.59 222.61,117.59 222.61,128.59 222.61,130.42 222.61,132 222.35,132.52 222.09,133.3 221.56,133.56 221.3,133.83 221.04,133.83 219.99,134.09 218.68,133.83 218.16,133.56 217.63,133.3 217.37,133.05 217.11,132.52 217.11,132 216.85,129.9 216.85,92.19 217.11,90.36 217.11,89.56 217.37,88.78 217.63,88.26 218.16,88 218.68,87.48 219.47,87.48 220.51,87.48 221.3,87.73 221.56,88.26 221.82,88.53 222.09,88.78 222.61,90.09 222.61,91.14 222.61,102.13 "/>
   <polygon class="fil2" points="154,118.64 154,123.09 154,127.8 154.51,132.26 154.78,133.83 155.3,135.4 155.83,136.97 156.61,138.28 158.19,139.85 159.76,141.16 161.85,141.95 163.69,142.99 165,143.25 168.66,144.04 172.06,144.3 175.74,144.3 179.4,144.04 181.75,143.52 183.85,142.99 186.21,141.95 188.31,140.9 189.87,139.85 191.44,138.28 192.49,136.44 193.02,134.61 193.28,134.09 194.07,131.21 194.32,128.07 194.32,125.19 194.32,122.04 194.07,120.73 193.54,119.68 193.02,118.38 192.75,117.33 191.97,116.02 191.44,114.97 190.39,114.19 189.35,113.14 188.31,112.09 175.74,102.4 174.69,101.35 173.89,100.3 172.85,99.52 172.59,98.21 171.81,96.12 171.54,95.07 171.54,94.02 171.54,92.19 171.54,90.36 171.81,89.83 172.06,89.05 172.33,88.53 172.85,88.26 172.85,88.26 173.64,88 174.16,87.73 174.69,87.73 175.47,88 175.99,88 176.26,88.53 176.26,88.53 176.77,89.05 176.77,89.83 177.04,90.61 177.04,102.13 194.07,102.13 194.07,89.31 194.07,87.73 193.28,86.16 192.49,84.33 191.44,83.02 189.87,81.71 188.31,80.66 186.46,79.62 184.63,78.83 182.54,78.57 180.45,78.04 178.62,77.79 176.52,77.79 174.42,77.79 172.59,77.79 170.49,78.04 168.4,78.31 166.83,78.57 165.52,78.83 164.2,79.36 162.9,79.87 161.59,80.66 160.28,81.19 158.97,82.24 157.92,83.02 157.4,83.55 156.61,84.85 155.56,86.16 155.04,87.48 154.78,88.78 154.51,91.4 154.26,93.76 154.26,96.12 154.26,98.47 154.51,99.52 154.78,100.83 155.04,101.62 155.3,102.66 156.09,103.71 156.61,104.5 157.4,105.54 158.19,106.33 159.23,107.11 170.49,116.02 172.85,117.33 174.42,119.43 175.74,120.48 176.52,122.04 176.77,122.83 177.04,123.61 177.04,129.37 177.04,130.68 176.77,132.26 176.77,132.78 176.52,133.56 175.99,133.83 175.47,134.09 174.94,134.61 174.16,134.61 173.37,134.35 172.85,134.09 172.06,133.56 171.54,133.05 171.54,132.52 171.28,131.47 171.28,118.64 "/>
   <path class="fil2" d="M106.07 143.25l14.93 0 2.62 -17.28 8.91 0 1.57 17.28 16.76 0 -10.74 -64.43 -22 0 -12.05 64.43zm19.11 -27.23l3.15 -30.12 3.41 30.12 -6.55 0 -0.01 0z"/>
   <polygon class="fil2" points="71.5,70.71 71.5,143.25 96.11,143.25 96.11,70.71 455.17,70.71 455.17,52.9 56.84,52.9 56.84,70.71 "/>
   <path class="fil3" d="M60.23 252.98c0,-0.78 0.26,-1.83 1.05,-2.62 0.53,-0.78 1.05,-1.57 1.83,-2.1 0.53,-0.52 1.05,-0.52 1.05,-0.52 1.58,1.83 3.41,3.15 6.03,4.45 2.36,1.31 4.98,1.83 7.59,1.83 2.88,0 4.71,-0.52 6.29,-1.57 1.57,-0.78 2.35,-2.36 2.35,-3.93 0,-1.31 -0.52,-2.1 -1.57,-2.88 -0.78,-1.05 -1.83,-1.58 -2.62,-1.58 -1.05,-0.52 -2.63,-0.78 -4.72,-1.3 -0.52,0 -1.04,-0.26 -1.3,-0.26 -1.58,-0.26 -3.15,-0.78 -4.46,-1.05 -1.3,-0.52 -2.62,-1.05 -3.92,-1.83 -1.31,-0.78 -2.36,-1.57 -3.41,-2.35 -0.78,-1.05 -1.57,-2.36 -2.1,-3.67 -0.52,-1.57 -0.78,-3.14 -0.78,-4.98 0,-4.18 1.57,-7.59 4.71,-10.21 3.15,-2.62 7.59,-3.93 13.1,-3.93 5.23,0 9.16,1.05 12.04,2.62 2.88,1.58 4.46,3.67 4.46,5.76 0,1.05 -0.53,2.1 -1.05,2.88 -0.79,1.05 -1.58,1.58 -2.1,2.1 -0.78,0.26 -1.05,0.53 -1.05,0.53 -1.57,-1.58 -3.4,-2.88 -5.5,-4.19 -2.1,-1.05 -4.46,-1.57 -6.81,-1.57 -2.36,0 -4.46,0.52 -5.76,1.57 -1.58,1.05 -2.1,2.36 -2.1,3.93 0,0.52 0,1.05 0,1.31 0,0.25 0.25,0.52 0.52,1.05 0.26,0.25 0.53,0.25 0.78,0.52 0,0.26 0.26,0.52 0.79,0.78 0.52,0.26 0.78,0.26 1.05,0.26 0.52,0.26 1.04,0.26 1.57,0.52 0.52,0.26 1.05,0.26 1.57,0.53 0.26,0 0.78,0.26 1.58,0.26 0.78,0 1.3,0.25 1.83,0.25 1.83,0.53 3.4,1.05 4.98,1.31 1.3,0.52 2.88,1.31 4.18,2.1 1.31,0.78 2.36,1.57 3.41,2.62 0.78,0.78 1.57,2.1 2.1,3.41 0.52,1.3 1.05,2.88 1.05,4.71 0,4.45 -1.84,8.11 -4.98,10.74 -3.41,2.35 -8.12,3.66 -13.88,3.66 -2.88,0 -5.5,-0.26 -7.86,-0.78 -2.36,-0.53 -4.19,-1.31 -5.5,-2.36 -1.58,-0.78 -2.63,-1.83 -3.41,-2.88 -0.52,-1.05 -1.05,-2.1 -1.05,-3.15l0 0 0.02 0.01zm83.55 -32.99l0 -0.25c0,-1.31 0.53,-2.36 1.31,-3.15 0.78,-0.78 2.1,-1.05 3.41,-1.05l31.17 0c3.14,0 4.71,1.31 4.71,4.19l0 0.25c0,3.15 -1.58,4.71 -4.71,4.71l-10.22 0 0 32.21c0,1.58 -0.52,2.63 -1.05,3.41 -1.05,0.78 -2.1,1.3 -3.66,1.3l-1.31 0c-2.88,0 -4.45,-1.57 -4.45,-4.71l0 -32.21 -10.47 0c-1.31,0 -2.63,-0.52 -3.41,-1.3 -0.78,-0.78 -1.31,-1.83 -1.31,-3.41l0 0 -0.01 0.01zm86.42 18.33c0,-4.71 1.05,-8.64 3.15,-12.31 2.1,-3.66 4.71,-6.28 8.39,-8.38 3.66,-2.1 7.86,-3.15 12.31,-3.15 4.45,0 8.64,1.05 12.31,3.15 3.67,2.1 6.29,4.71 8.39,8.38 1.83,3.41 2.88,7.59 2.88,12.31 0,4.46 -1.05,8.65 -2.88,12.32 -2.1,3.66 -4.98,6.54 -8.64,8.38 -3.67,2.1 -7.6,3.15 -12.32,3.15 -4.45,0 -8.38,-1.05 -12.04,-3.15 -3.67,-1.83 -6.55,-4.71 -8.39,-8.38 -2.1,-3.66 -3.14,-7.86 -3.14,-12.32l-0.02 0zm10.48 0c0,4.19 1.3,7.6 3.66,10.48 2.62,2.62 5.76,3.93 9.69,3.93 3.66,0 7.07,-1.31 9.43,-3.93 2.36,-2.63 3.67,-6.29 3.67,-10.48 0,-4.45 -1.31,-7.85 -3.67,-10.47 -2.35,-2.88 -5.76,-4.19 -9.69,-4.19 -3.93,0 -6.81,1.31 -9.43,3.93 -2.36,2.89 -3.66,6.29 -3.66,10.74l0 -0.01zm87.47 17.54l0 -34.57c0,-1.83 0.26,-3.15 1.31,-4.19 1.04,-1.3 2.35,-1.57 3.92,-1.57l13.62 0c6.03,0 10.48,1.05 13.62,3.66 3.15,2.36 4.72,6.03 4.72,10.47 0,3.67 -1.05,6.81 -3.15,9.17 -2.1,2.62 -4.98,3.93 -8.91,4.71l12.05 14.15c0,0 0,0.25 0,0.25 0,0 0,0.26 0,0.26 -0.26,0.52 -0.53,0.78 -0.79,1.05 -0.25,0.52 -0.78,0.78 -1.3,1.05 -0.26,0.26 -1.05,0.78 -1.58,0.78 -0.78,0.26 -1.57,0.53 -2.62,0.53 -1.31,0 -2.62,-0.26 -3.66,-1.05 -0.78,-0.53 -1.83,-1.58 -3.15,-3.15l-9.69 -12.32 -3.93 0 0 11.79c0,1.31 -0.26,2.63 -1.31,3.41 -0.52,0.78 -1.83,1.3 -3.4,1.3l-1.31 0c-1.57,0 -2.62,-0.52 -3.4,-1.57 -0.78,-1.05 -1.05,-2.35 -1.05,-4.19l0 0 0.01 0.03zm10.48 -18.59l7.86 0c2.62,0 4.71,-0.52 6.03,-1.83 1.57,-1.04 2.35,-2.88 2.35,-4.97 0,-2.36 -0.78,-3.93 -2.35,-5.24 -1.31,-1.05 -3.41,-1.57 -6.29,-1.57l-7.59 0 0 13.61 0 0 -0.01 0zm76.99 18.34l0 -34.31c0,-1.83 0.52,-3.15 1.57,-4.19 0.78,-1.3 2.1,-1.57 3.93,-1.57l25.4 0c1.58,0 2.88,0.26 3.66,1.05 0.79,0.78 1.31,1.83 1.31,3.15l0 0.52c0,2.88 -1.83,4.45 -4.98,4.45l-20.43 0 0 9.17 14.93 0c3.15,0 4.71,1.31 4.71,3.93l0 0.26c0,2.88 -1.57,4.18 -4.71,4.18l-14.93 0 0 9.95 20.69 0c3.4,0 4.98,1.31 4.98,3.93l0 0.53c0,1.57 -0.53,2.62 -1.31,3.4 -0.78,0.78 -1.83,1.31 -3.66,1.31l-25.67 0c-1.83,0 -3.14,-0.53 -3.93,-1.58 -1.05,-1.05 -1.57,-2.35 -1.57,-4.18l0 0 0.01 0z"/>
  </g>
 </g>
</svg>
